:SAMPLES-PER-SECOND 30
:FRAME-RANGE 1-2091
:FULLY-SPECIFIED
:DEGREES
1634
root  -64.8826 39.2774 -10.7124 -171.949 -45.3155 174.007
RightUpLeg  -16.8639 -1.41599 5.37911
RightLeg  14.9344 -6.90161 -2.28927
RightFoot  -4.07647 0.399604 -6.71568
RightToes  5.38607e-012 1.2921e-014 -6.02303e-014
Spine  -2.56986 -1.74357 -0.590871
Spine1  8.19638 -2.1481 -1.54789
HEad  10.9354 -32.5136 7.00479
LeftShoulder1  0.874761 -0.174631 -18.8348
LeftArm  -0.581987 12.3695 -37.4552
LeftForeArm  23.6558 -3.64893 -12.3443
LeftHand  -0.035848 4.95942 3.26818
RightShoulder  1.06251 -0.203148 28.1839
RightArm  -41.3553 -12.6227 35.0489
RightForeArm  24.4344 -4.6321 -6.87296
RightHand  -0.121966 -4.7859 -21.8265
LeftUpLeg  5.93868 -43.4635 -21.0055
LeftLeg  55.3813 20.4131 28.9781
LeftFoot  21.3368 11.1247 -37.2351
LeftToes  -7.20997e-011 3.75522e-011 -2.80735e-011
1635
root  -65.7248 39.6189 -12.3021 -170.887 -42.8991 172.802
RightUpLeg  -12.4411 -0.892765 4.9363
RightLeg  11.3064 -5.59076 -1.25648
RightFoot  -4.88151 0.413968 -7.90041
RightToes  5.38607e-012 1.2921e-014 -6.02303e-014
Spine  -3.26041 -1.33734 -2.23462
Spine1  8.44375 -1.74964 -1.95948
HEad  12.1719 -33.1261 6.63833
LeftShoulder1  0.966941 -0.4767 -19.2992
LeftArm  -2.37875 13.8508 -37.4478
LeftForeArm  25.7626 -2.02069 -12.1256
LeftHand  0.111784 8.70703 5.26819
RightShoulder  0.979966 -0.376248 27.3407
RightArm  -40.7412 -12.5662 37.1948
RightForeArm  21.7092 -4.82074 -5.91671
RightHand  -0.178702 -4.44671 -20.9068
LeftUpLeg  3.29068 -50.5688 -22.5889
LeftLeg  59.4338 23.7908 36.892
LeftFoot  19.2625 10.7675 -38.4812
LeftToes  -7.20997e-011 3.75522e-011 -2.80735e-011
1636
root  -66.5037 39.7789 -13.7816 -169.868 -40.6349 171.856
RightUpLeg  -8.97219 -1.01705 4.36836
RightLeg  8.78162 -3.67873 -0.16255
RightFoot  -5.92895 0.384469 -8.9536
RightToes  5.38607e-012 1.2921e-014 -6.02303e-014
Spine  -3.01393 -1.40451 -2.83481
Spine1  8.00431 -1.37211 -2.97043
HEad  13.6718 -32.76 6.74936
LeftShoulder1  0.807573 0.111512 -18.9933
LeftArm  -3.0625 15.4547 -37.7835
LeftForeArm  25.823 -1.21535 -12.0012
LeftHand  0.254261 10.3379 6.95567
RightShoulder  1.03104 -0.144285 26.4839
RightArm  -40.7061 -12.3274 39.1757
RightForeArm  19.4618 -4.94866 -5.25598
RightHand  -0.0536984 -5.15017 -21.9638
LeftUpLeg  1.00095 -60.0788 -23.0064
LeftLeg  63.8508 29.9402 48.3221
LeftFoot  20.6655 11.0934 -37.8899
LeftToes  -7.20997e-011 3.75522e-011 -2.80735e-011
1637
root  -67.3294 39.7747 -15.1921 -169.66 -37.7319 171.796
RightUpLeg  -5.997 -0.39556 4.45174
RightLeg  7.54934 -2.30919 0.311329
RightFoot  -7.17627 0.342443 -10.7045
RightToes  5.38607e-012 1.2921e-014 -6.02303e-014
Spine  -2.493 -1.16186 -2.00916
Spine1  7.61405 -0.566177 -4.08776
HEad  14.6442 -31.6406 7.77597
LeftShoulder1  0.700403 0.567179 -19.3076
LeftArm  -2.85389 17.0067 -37.1643
LeftForeArm  26.3806 -1.8367 -12.0068
LeftHand  0.171836 9.49684 6.01002
RightShoulder  1.11625 0.219186 25.5197
RightArm  -40.7566 -11.3956 39.9962
RightForeArm  18.395 -4.19752 -4.55777
RightHand  -0.11924 -4.82757 -23.0629
LeftUpLeg  -0.404906 -71.2842 -22.3436
LeftLeg  69.7843 37.4526 61.7053
LeftFoot  22.3727 10.4356 -34.0287
LeftToes  -7.20997e-011 3.75522e-011 -2.80735e-011
1638
root  -68.2137 39.5655 -16.558 -169.878 -34.4647 172.424
RightUpLeg  -4.1789 0.0255673 4.9033
RightLeg  8.92327 0.0891685 0.292935
RightFoot  -9.69869 0.102105 -11.622
RightToes  5.38607e-012 1.2921e-014 -6.02303e-014
Spine  -2.20576 -0.813072 -0.0459335
Spine1  7.54236 0.314138 -5.11853
HEad  14.6836 -30.8654 7.75059
LeftShoulder1  0.550533 1.19441 -19.844
LeftArm  -3.32719 17.8963 -36.6857
LeftForeArm  27.2919 -1.2216 -11.8058
LeftHand  0.0202449 6.40748 5.51692
RightShoulder  1.24237 0.730878 24.6156
RightArm  -40.9236 -9.17203 39.8613
RightForeArm  17.9251 0.190785 -3.44561
RightHand  -0.227789 -4.32627 -24.074
LeftUpLeg  -8.8481 -83.0004 -12.561
LeftLeg  79.6251 45.2756 78.2818
LeftFoot  23.7209 9.19393 -29.0478
LeftToes  -7.20997e-011 3.75522e-011 -2.80735e-011
1639
root  -69.2 39.0782 -17.9524 -170.654 -31.4552 173.869
RightUpLeg  -3.35019 0.534329 6.083
RightLeg  13.1349 1.59615 0.0949638
RightFoot  -13.8412 -0.360488 -12.1975
RightToes  5.38607e-012 1.2921e-014 -6.02303e-014
Spine  -2.24628 -0.371683 2.68574
Spine1  7.64916 0.936523 -5.3258
HEad  14.4573 -29.9865 7.33059
LeftShoulder1  0.444724 1.64161 -20.5418
LeftArm  -3.01572 18.7895 -36.0833
LeftForeArm  26.4521 -1.33508 -11.9025
LeftHand  0.0216277 8.77704 2.25537
RightShoulder  1.32073 1.15185 23.4218
RightArm  -41.2731 -6.03362 38.9904
RightForeArm  16.7751 4.2048 -2.57785
RightHand  0.0124882 -5.48037 -24.0135
LeftUpLeg  -152.476 -84.0525 134.341
LeftLeg  94.0632 50.6837 97.6921
LeftFoot  24.6348 8.0178 -24.8491
LeftToes  -7.20997e-011 3.75522e-011 -2.80735e-011
1640
root  -70.3098 38.24 -19.5236 -171.707 -28.5642 175.775
RightUpLeg  -2.87392 0.885446 7.42733
RightLeg  19.6072 3.3255 0.646079
RightFoot  -19.3784 -1.08931 -13.573
RightToes  5.38607e-012 1.2921e-014 -6.02303e-014
Spine  -2.92505 0.288512 5.59803
Spine1  8.00633 1.31834 -4.76804
HEad  13.956 -29.1674 6.86959
LeftShoulder1  0.387215 1.89731 -21.3658
LeftArm  -3.47767 18.9899 -35.8099
LeftForeArm  26.4244 -0.255433 -11.7381
LeftHand  0.0324884 8.67008 2.66985
RightShoulder  1.40544 1.74206 21.5435
RightArm  -41.9912 -2.3127 37.631
RightForeArm  15.2081 7.03808 -2.32058
RightHand  -0.244722 -4.20301 -23.1879
LeftUpLeg  -161.857 -72.6159 147.718
LeftLeg  107.919 51.6713 114.592
LeftFoot  23.4819 7.19291 -23.1462
LeftToes  -7.20997e-011 3.75522e-011 -2.80735e-011
1641
root  -71.4509 37.4247 -21.3625 -172.375 -26.6016 177.408
RightUpLeg  -1.0061 0.686932 8.53907
RightLeg  23.7279 4.02862 1.14917
RightFoot  -23.8775 -1.65941 -13.5667
RightToes  5.38607e-012 1.2921e-014 -6.02303e-014
Spine  -4.16208 0.833546 7.72778
Spine1  7.92051 1.18441 -4.01273
HEad  14.2982 -28.6245 6.14704
LeftShoulder1  0.184997 2.64717 -22.0427
LeftArm  -2.70389 18.5602 -35.3176
LeftForeArm  26.9234 0.545413 -11.9983
LeftHand  -0.236502 2.18821 8.32939
RightShoulder  1.41747 2.11512 19.7353
RightArm  -42.7597 1.58711 35.3342
RightForeArm  13.5493 8.56993 -2.40036
RightHand  -0.232154 -4.21588 -22.1558
LeftUpLeg  -161.735 -61.0218 151.86
LeftLeg  120.422 49.7941 129.484
LeftFoot  21.7323 7.0967 -24.0624
LeftToes  -7.20997e-011 3.75522e-011 -2.80735e-011
